<?xml version="1.0" encoding="UTF-8" standalone="no"?>
<svg
   width="1200pt"
   height="1200pt"
   version="1.1"
   viewBox="0 0 1200 1200"
   id="svg3"
   xmlns="http://www.w3.org/2000/svg"
   xmlns:svg="http://www.w3.org/2000/svg">
  <defs
     id="defs3" />
  <g
     id="g3">
    <path
       d="m484.8 650.16c-34.762 7.9023-66.398 25.945-90.891 51.848-24.496 25.902-40.746 58.492-46.695 93.645-5.9453 35.148-1.3242 71.273 13.285 103.79 14.605 32.52 38.543 59.969 68.77 78.867 30.227 18.898 65.387 28.395 101.02 27.289 35.633-1.1094 70.133-12.773 99.125-33.512 28.996-20.742 51.18-49.625 63.738-82.988 12.559-33.363 14.93-69.707 6.8086-104.42-10.832-46.293-39.535-86.418-79.844-111.62-40.312-25.203-88.957-33.434-135.32-22.898zm-42.121 306.6c-41.191-25.668-68.09-69.039-72.773-117.34-4.6875-48.305 13.379-96.039 48.867-129.14 35.492-33.102 84.367-47.801 132.23-39.766 47.863 8.0312 89.262 37.883 112 80.762 22.738 42.875 24.227 93.891 4.0234 138.02-20.199 44.125-59.785 76.34-107.1 87.148-40.141 9.3867-82.367 2.2969-117.24-19.68z"
       id="path1"
       style="fill:#ffffff" />
    <path
       d="m540 810.6-14.641-63.48c4.5156 0.60938 8.8477 2.1602 12.719 4.5586 7.4414 4.6758 12.742 12.09 14.762 20.641 0.32422 3.4492 2.125 6.5898 4.9375 8.6133 2.8125 2.0234 6.3594 2.7344 9.7344 1.9492 3.375-0.78906 6.2422-2.9961 7.8711-6.0547 1.625-3.0586 1.8516-6.6719 0.61719-9.9062-3.3047-14.898-12.418-27.855-25.32-36-9.3672-5.793-20.188-8.7891-31.199-8.6406l-2.6406-12c-1.625-6.2773-7.9375-10.129-14.258-8.7031-6.3242 1.4297-10.371 7.6172-9.1406 13.98l2.7617 12h-0.003906c-15.844 7.4336-27.398 21.734-31.332 38.789-3.9375 17.055 0.17969 34.973 11.168 48.598 10.984 13.625 27.625 21.445 45.125 21.215l14.762 63.84c-6.5898-0.94141-12.738-3.8516-17.641-8.3477-4.9062-4.4961-8.3359-10.371-9.8398-16.852-1.4922-6.4609-7.9414-10.492-14.402-9-6.4609 1.4922-10.488 7.9375-9 14.398 2.9258 12.582 10.02 23.801 20.125 31.84 10.109 8.0391 22.641 12.426 35.555 12.441h0.83984l2.6406 12c1.3047 5.5352 6.3164 9.3906 12 9.2383h2.7617c3.1016-0.71484 5.7969-2.6328 7.4844-5.332 1.6875-2.7031 2.2344-5.9648 1.5156-9.0664l-2.7617-12c15.387-7.6797 26.484-21.891 30.203-38.68 3.7148-16.789-0.34375-34.359-11.051-47.816-10.707-13.453-26.918-21.355-44.113-21.504zm-38.039-58.078 13.801 60v-0.003907c-8.8477-1.2695-16.801-6.0703-22.039-13.309-5.2422-7.2383-7.3242-16.289-5.7734-25.09 1.5547-8.8008 6.6094-16.594 14.012-21.602zm43.68 82.441v-0.003906c8.8438 1.2695 16.797 6.0703 22.039 13.309 5.2422 7.2383 7.3242 16.289 5.7695 25.09-1.5508 8.8008-6.6055 16.594-14.008 21.602z"
       id="path2"
       style="fill:#ffffff" />
    <path
       d="m 682.56,545.16 -625.2,144 c -3.1445,0.63281 -5.9023,2.5 -7.6641,5.1836 -1.7578,2.6836 -2.3672,5.9609 -1.6953,9.0977 l 20.16,87.84 80.879,351.36 c 0.33984,1.4609 0.95313,2.8438 1.8008,4.0781 l 0.83984,0.9609 c 0.66797,0.8125 1.4336,1.5352 2.2812,2.1602 l 1.5586,0.7188 h 1.082 c 1.1914,0.1836 2.4062,0.1836 3.5977,0 0.875,0.1172 1.7656,0.1172 2.6406,0 l 89.16,-19.078 663.96,-152.88001 87.83996,-20.281 c 3.1016,-0.71484 5.7969,-2.6328 7.4844,-5.3359 1.6875,-2.6992 2.2344,-5.9609 1.5156,-9.0625 l -20.15996,-87.84 -12.719,-55.078 v -0.004 c 26.13696,-6.7344 50.46096,-19.18 71.21096,-36.445 20.75,-17.262 37.414,-38.914 48.789,-63.395 67.441,-135.72 9.8398,-360.84 -31.68,-415.56 h -0 c -3.2148,-4.2305 -8.8281,-5.8438 -13.797,-3.9609 -4.9141,1.8828 -8.0312,6.7461 -7.6797,12 1.5586,21.719 0.6016,83.039 -21.84,106.68 -1.793,1.9141 -3.8086,3.6055 -6,5.0391 6.1094,-29.445 4.0781,-60 -5.8789,-88.375 -9.9609,-28.375 -27.46897,-53.5 -50.64497,-72.664 -100.32,-85.801 -94.199,-182.399996 -94.199,-183.359996 0.58594,-4.9023 -1.8867,-9.6641 -6.2383,-12 -4.1875,-2.2695 -9.3203,-1.8438 -13.082,1.0781 -1.0781,0.96094 -117.6,93.839996 -57.602,262.319996 h 0.004 c 13.645,37.492 14.617,78.426 2.7578,116.52 -22.922,-67.68 -97.68,-96 -101.4,-97.68 -3.3281,-1.2266 -7.0273,-0.91797 -10.105,0.83984 -3.0781,1.7617 -5.2227,4.793 -5.8555,8.2812 0,2.5195 0,2.5195 2.5195,17.281 7.8516,33.133 13.664,66.715 17.402,100.56 -0.71875,8.1602 -2.8789,19.922 -5.3984,33.602 -2.5234,13.68 -6.125,33.957 -8.6445,53.398 z m 94.199,-74.641 h 0.004 c 0.0273,5.4844 3.7656,10.254 9.0859,11.582 5.3242,1.332 10.867,-1.1172 13.473,-5.9414 l 3.6016,-6.6016 c 13.27,-25.156 21.109,-52.824 23.012,-81.207 1.9023,-28.383 -2.1758,-56.848 -11.973,-83.551 -40.082,-112.8 4.1992,-185.64 31.559,-217.32 4.6797,38.281 24,109.32 101.28,175.08 22.281,18.188 38.473,42.746 46.41,70.391 7.93359,27.645 7.23049,57.055 -2.0117,84.289 -1.4297,3.6562 -0.98047,7.7812 1.1992,11.043 2.1875,3.2344 5.8164,5.207 9.72269,5.2773 15.223,0.5625 29.941,-5.5273 40.32,-16.68 17.52,-18.48 24,-49.68 27.359,-76.32 31.441,81.238 61.199,244.56 8.7617,349.92 h -0 c -14.062,29.852 -36.926,54.684 -65.52,71.16 13.223,-13.105 23.742,-28.68 30.961,-45.84 10.938,-28.18 15.094,-58.531 12.133,-88.613 -2.957,-30.082 -12.953,-59.043 -29.172,-84.547 -38.039,-52.922 -134.64,-110.64 -138.96,-112.92 -4.3281,-2.4492 -9.7188,-1.9727 -13.555,1.1953 -3.832,3.168 -5.3164,8.375 -3.7266,13.086 18.719,54 1.1992,66.359 -30.602,89.039 -26.996,18.961 -60.117,42.961 -75.719,100.68 -17.52,66.719 20.641,114.24 65.641,144 -35.371,-6.7148 -67.547,-24.891 -91.559,-51.719 -53.641,-64.441 -34.922,-168 -24,-229.08 2.6406,-14.281 4.8008,-26.52 5.6406,-36 0.8398,-9.48 -3.4805,-36.719 -15.48,-96 27.359,15.117 72.121,49.316 72.121,105.6 z m -638.76,224.64 c 1.1445,16.523 -2.9805,32.988 -11.777,47.023 -8.793,14.035 -21.812,24.922 -37.184,31.098 L 74.397,709.8 Z m 18,366.84 c 16.523,-1.125 32.977,3.0039 47.008,11.801 14.031,8.793 24.922,21.801 31.113,37.16 l -63.961,14.641 z m 768,-109.8 c -1.1055,-16.555 3.0977,-33.035 12,-47.039 8.4297,-13.891 21.027,-24.77 36,-31.082 l 14.641,63.602 z m -8.6406,-60 c -12.395,19.469 -17.809,42.57 -15.359,65.52 l -642.84,147.84 c -7.7656,-21.543 -22.535,-39.859 -41.938,-52.02 -19.406,-12.16 -42.328,-17.465 -65.102,-15.059 l -55.68,-241.56 c 21.539,-7.8086 39.848,-22.602 52.004,-42.023 12.156,-19.422 17.465,-42.352 15.074,-65.137 l 518.28,-119.4 c -4.8008,57.359 0,122.16 40.32,170.64 36.719,44.16 98.16,66.961 182.16,68.398 h 8.2773 v -0.004 c 15.391,0.004 30.758,-1.2031 45.961,-3.5977 l 10.199,44.398 c -21.691,7.7422 -40.102,22.641 -52.199,42.242 z m -14.281,-425.88 c 31.078,20.398 82.68,57.238 106.8,90.359 13.797,22.137 22.277,47.168 24.773,73.129 2.5,25.965 -1.0508,52.152 -10.371,76.512 -18.719,43.922 -58.32,70.559 -117.6,79.078 -19.199,-5.7617 -143.04,-46.559 -117.12,-145.68 12.961,-48.961 41.398,-69.238 66.48,-87.121 27.723,-19.797 54.121,-38.52 47.039,-86.277 z"
       id="path3"
       style="fill:#ffffff" />
  </g>
</svg>